<?xml version="1.0" encoding="iso-8859-1"?>
<!-- Generator: Adobe Illustrator 16.0.0, SVG Export Plug-In . SVG Version: 6.00 Build 0)  -->
<!DOCTYPE svg PUBLIC "-//W3C//DTD SVG 1.1//EN" "http://www.w3.org/Graphics/SVG/1.1/DTD/svg11.dtd">
<svg version="1.1" id="Capa_1" xmlns="http://www.w3.org/2000/svg" xmlns:xlink="http://www.w3.org/1999/xlink" x="0px" y="0px"
	 width="125.29px" height="125.291px" viewBox="0 0 125.29 125.291" style="enable-background:new 0 0 125.29 125.291;"
	 xml:space="preserve">
<g>
	<g>
		<polygon points="65.835,2.46 62.404,0.05 58.901,2.458 31.431,21.261 31.431,11.691 16.031,11.691 16.031,31.804 0,42.78 
			6.914,52.875 62.328,14.948 118.384,53.216 125.29,43.118 		"/>
		<path d="M60.715,29.557c-26.42,0-47.841,21.419-47.841,47.842c0,26.422,21.421,47.841,47.841,47.841
			c26.422,0,47.842-21.419,47.842-47.841C108.557,50.976,87.137,29.557,60.715,29.557z M66.602,109.626v10.646H54.452v-9.81
			c-5.854-0.471-11.712-2.217-15.318-4.623l-1.204-0.803l3.804-13.235l2.196,1.297c4.448,2.622,9.77,4.129,14.598,4.129
			c5.238,0,8.626-2.328,8.626-5.929c0-2.465-1.165-5.166-9.604-8.244c-9.193-3.328-18.6-8.278-18.6-19.758
			c0-9.242,6.126-16.25,16.101-18.606V34.525h12.148v9.399c4.716,0.354,8.795,1.449,12.707,3.408l1.479,0.74l-3.81,12.971
			l-2.64-1.211c-2.369-1.107-6.34-2.958-12.212-2.958c-4.708,0-7.521,1.875-7.521,5.024c0,2.741,2.637,4.68,10.858,7.966
			c12.209,4.579,17.44,10.666,17.44,20.332C83.501,99.844,76.924,107.323,66.602,109.626z"/>
	</g>
</g>
<g>
</g>
<g>
</g>
<g>
</g>
<g>
</g>
<g>
</g>
<g>
</g>
<g>
</g>
<g>
</g>
<g>
</g>
<g>
</g>
<g>
</g>
<g>
</g>
<g>
</g>
<g>
</g>
<g>
</g>
</svg>
